# xmcd CD database file
#
# Track frame offsets:
#	150
#	16543
#	30056
#	42016
#	55105
#	68992
#	81336
#	94723
#	107484
#	120707
#	132213
#	143930
#	157251
#	170915
#	183455
#	195255
#	207438
#	219463
#
# Disc length: 3088 seconds
#
# Revision: 0
# Processed by: cddbd v1.4PL0 Copyright (c) Steve Scherf et al.
# Submitted via: CDex 1.50beta9
#
DISCID=f30c0e12
DTITLE=Big Bill Broonzy - The Southern Blues
DYEAR=2001
DGENRE=Blues
TTITLE0=The Southern Blues
TTITLE1=These Ants Keep Biting Me
TTITLE2=Pneumonia Blues
TTITLE3=Detroit Special
TTITLE4=Horny Frog
TTITLE5=Hattie Blues
TTITLE6=Somebody's Got To Go
TTITLE7=It's Your Time Now
TTITLE8=Living On Easy Street
TTITLE9=Baby I Done Got Wise
TTITLE10=Just A Dream
TTITLE11=That's Allright Baby
TTITLE12=I.C. Blues
TTITLE13=Cotton Choppin' Blues
TTITLE14=My Last Goodbye To You
TTITLE15=Midnight Steppers
TTITLE16=Hit The Right Lick
TTITLE17=That Number Of Mine
EXTD=YEAR: 2001
EXTT0=
EXTT1=
EXTT2=
EXTT3=
EXTT4=
EXTT5=
EXTT6=
EXTT7=
EXTT8=
EXTT9=
EXTT10=
EXTT11=
EXTT12=
EXTT13=
EXTT14=
EXTT15=
EXTT16=
EXTT17=
PLAYORDER=
